<svg xmlns="http://www.w3.org/2000/svg" viewBox="0 0 531.43 161.27">
  <style>path { fill: #000000 !important; }</style>
  <path fill="#ffffff" d="M531.09,128.54c0,18.07-14.66,32.73-32.75,32.73s-32.75-14.66-32.75-32.73,14.66-32.75,32.75-32.75,32.75,14.66,32.75,32.75ZM465.14,74.89c-2.35-5.3-7.66-8.99-13.82-8.99-8.36,0-15.13,6.77-15.13,15.13,0,6.17,3.7,11.47,8.99,13.83,3.77,1.66,6.14,5.46,6.14,9.58v46.25c0,6.51-5.82,11.42-12.24,10.45-34.72-5.26-62.19-32.58-67.75-67.2-5.55,34.62-33.02,61.94-67.75,67.2-6.43.97-12.23-3.94-12.23-10.45v-42.56c-11.15,31.41-41.12,53.92-76.38,53.92s-65.22-22.51-76.37-53.93v42.57c0,6.51-5.82,11.42-12.24,10.45-27.14-4.11-49.84-21.68-61.11-45.69v31.04c0,7.29-5.92,13.21-13.22,13.21H13.21c-7.29,0-13.21-5.92-13.21-13.21V15.56C0,8.26,5.92,2.35,13.21,2.35h38.8c7.31,0,13.22,5.92,13.22,13.21v31.04C76.51,22.59,99.21,5.03,126.35.91c6.43-.97,12.24,3.94,12.24,10.45v42.57C149.74,22.51,179.73,0,214.96,0s65.24,22.51,76.38,53.92V11.36c0-6.51,5.8-11.42,12.23-10.45,34.74,5.26,62.19,32.56,67.75,67.17C377.53,29.49,410.98,0,451.32,0s74.22,29.85,80.11,68.79c.98,6.43-3.94,12.24-10.44,12.24h-46.25c-4.12,0-7.92-2.37-9.6-6.14ZM133.93,81.03c0-5.47.55-10.81,1.59-15.98-.88.88-1.89,1.62-3.06,2.15-5.3,2.36-9,7.66-9,13.84s3.7,11.47,8.99,13.83c1.18.51,2.19,1.27,3.06,2.13-1.02-5.16-1.58-10.49-1.58-15.97ZM230.09,81.03c0-8.36-6.77-15.13-15.13-15.13s-15.13,6.77-15.13,15.13,6.78,15.13,15.13,15.13,15.13-6.77,15.13-15.13ZM306.46,81.03c0-6.17-3.68-11.47-8.99-13.82-1.17-.53-2.19-1.27-3.06-2.15,1.04,5.16,1.58,10.49,1.58,15.97s-.54,10.81-1.58,15.98c.87-.88,1.89-1.62,3.06-2.15,5.3-2.35,8.99-7.66,8.99-13.83Z"/>
</svg>
